<svg width="24" height="24" viewBox="0 0 24 24" fill="none" xmlns="http://www.w3.org/2000/svg">
<path d="M3.27512 15.296C2.42512 14.192 2.00012 13.639 2.00012 12C2.00012 10.36 2.42512 9.809 3.27512 8.704C4.97212 6.5 7.81812 4 12.0001 4C16.1821 4 19.0281 6.5 20.7251 8.704C21.5751 9.81 22.0001 10.361 22.0001 12C22.0001 13.64 21.5751 14.191 20.7251 15.296C19.0281 17.5 16.1821 20 12.0001 20C7.81812 20 4.97212 17.5 3.27512 15.296Z" stroke="#483CCF" stroke-width="1.5"/>
<path d="M15.0001 12C15.0001 12.7956 14.6841 13.5587 14.1214 14.1213C13.5588 14.6839 12.7958 15 12.0001 15C11.2045 15 10.4414 14.6839 9.8788 14.1213C9.31619 13.5587 9.00012 12.7956 9.00012 12C9.00012 11.2044 9.31619 10.4413 9.8788 9.87868C10.4414 9.31607 11.2045 9 12.0001 9C12.7958 9 13.5588 9.31607 14.1214 9.87868C14.6841 10.4413 15.0001 11.2044 15.0001 12Z" stroke="#483CCF" stroke-width="1.5"/>
</svg>